# xmcd CD database file
#
# Track frame offsets:
#	150
#	20080
#	40682
#	59900
#	76332
#	97132
#	125822
#	142167
#	159575
#	177477
#	189925
#	206545
#	225409
#	244347
#	274367
#	294687
#
# Disc length: 4225 seconds
#
# Revision: 0
# Processed by: cddbd v1.5.2PL0 Copyright (c) Steve Scherf et al.
# Submitted via: CDex 1.51
#
DISCID=fa107f10
DTITLE=Chicago Six - Eclectic Energy
DYEAR=1995
DGENRE=Jazz
TTITLE0=Flyin' Home
TTITLE1=Limehouse Blues
TTITLE2=Mercy, Mercy
TTITLE3=Sentimental Journey
TTITLE4=Blues Backstage
TTITLE5=Smooth One
TTITLE6=Bernies Tune
TTITLE7=Dreamsville
TTITLE8=Taps Miller
TTITLE9=Lullaby of the Leaves
TTITLE10=Darn that Dream
TTITLE11=Russian Lullaby
TTITLE12=Sermonette
TTITLE13=On a Little Street in Singapore
TTITLE14=Si Tu Vois Ma Mere
TTITLE15=Undecided
EXTD=YEAR: 1995
EXTT0=
EXTT1=
EXTT2=
EXTT3=
EXTT4=
EXTT5=
EXTT6=
EXTT7=
EXTT8=
EXTT9=
EXTT10=
EXTT11=
EXTT12=
EXTT13=
EXTT14=
EXTT15=
PLAYORDER=
